<svg width="500" height="500" viewBox="0 0 500 500" fill="none" xmlns="http://www.w3.org/2000/svg">
<circle cx="250" cy="250" r="249.5" fill="#282828" stroke="white"/>
<path d="M260 400L280 380H380L360 400H260Z" fill="#DAC9B7"/>
<rect x="280" y="280" width="100" height="100" fill="#FAF0E6"/>
<path d="M331.896 365.048C312.696 365.048 300.664 356.216 300.024 341.752H319.736C320.504 348.28 324.856 351.48 331.768 351.48C338.04 351.48 342.008 349.176 342.008 344.952C342.008 339.064 334.072 338.424 325.368 336.888C313.976 334.968 301.816 331.896 301.816 316.536C301.816 302.712 314.616 295.544 330.104 295.544C348.664 295.544 358.648 303.608 359.672 316.536H340.472C339.704 310.648 335.736 308.856 329.976 308.856C324.856 308.856 320.888 310.776 320.888 314.872C320.888 319.48 328.312 320.12 336.632 321.656C348.152 323.576 361.72 326.52 361.72 343.288C361.72 357.624 349.048 365.048 331.896 365.048Z" fill="#DAC9B7"/>
</svg>
